<svg width="21" height="21" viewBox="0 0 21 21" fill="none" xmlns="http://www.w3.org/2000/svg">
<path d="M10.1572 0.515503C7.39893 0.515503 7.0527 0.527589 5.96944 0.576847C4.8882 0.626409 4.15015 0.797542 3.50441 1.04871C2.83634 1.3081 2.26972 1.65514 1.70523 2.21982C1.14024 2.78441 0.793203 3.35103 0.533 4.0188C0.281125 4.66474 0.109789 5.4031 0.0611406 6.48382C0.0126952 7.56719 0 7.91352 0 10.6719C0 13.4302 0.0121875 13.7753 0.0613438 14.8586C0.111109 15.9398 0.282242 16.6779 0.533203 17.3236C0.792797 17.9917 1.13984 18.5583 1.70452 19.1228C2.26891 19.6878 2.83552 20.0356 3.50309 20.295C4.14934 20.5462 4.88749 20.7173 5.96852 20.7669C7.05189 20.8161 7.39781 20.8282 10.1559 20.8282C12.9145 20.8282 13.2596 20.8161 14.3429 20.7669C15.4241 20.7173 16.163 20.5462 16.8092 20.295C17.477 20.0356 18.0428 19.6878 18.6071 19.1228C19.1721 18.5583 19.519 17.9917 19.7793 17.3239C20.0289 16.6779 20.2004 15.9396 20.2512 14.8588C20.2998 13.7755 20.3125 13.4302 20.3125 10.6719C20.3125 7.91352 20.2998 7.56739 20.2512 6.48403C20.2004 5.40279 20.0289 4.66484 19.7793 4.0191C19.519 3.35103 19.1721 2.78441 18.6071 2.21982C18.0422 1.65493 17.4772 1.30789 16.8086 1.04881C16.1611 0.797542 15.4227 0.626308 14.3414 0.576847C13.2581 0.527589 12.9132 0.515503 10.154 0.515503H10.1572ZM9.24605 2.34576C9.51651 2.34535 9.81825 2.34576 10.1572 2.34576C12.869 2.34576 13.1903 2.35551 14.2612 2.40416C15.2514 2.44946 15.7889 2.6149 16.1469 2.75394C16.6209 2.93797 16.9588 3.15806 17.3141 3.51363C17.6695 3.8691 17.8895 4.2076 18.0741 4.6816C18.2131 5.0391 18.3787 5.57657 18.4238 6.5668C18.4725 7.63747 18.4831 7.95902 18.4831 10.6695C18.4831 13.38 18.4725 13.7017 18.4238 14.7722C18.3785 15.7625 18.2131 16.2999 18.0741 16.6575C17.89 17.1315 17.6695 17.469 17.3141 17.8243C16.9586 18.1798 16.6211 18.3997 16.1469 18.5839C15.7893 18.7235 15.2514 18.8886 14.2612 18.9339C13.1905 18.9825 12.869 18.9931 10.1572 18.9931C7.44524 18.9931 7.1238 18.9825 6.05323 18.9339C5.06299 18.8882 4.52552 18.7227 4.16721 18.5837C3.69332 18.3995 3.35471 18.1796 2.99924 17.8241C2.64377 17.4686 2.42379 17.1309 2.23925 16.6567C2.10021 16.2991 1.93456 15.7617 1.88947 14.7714C1.84082 13.7008 1.83107 13.3792 1.83107 10.667C1.83107 7.95485 1.84082 7.63493 1.88947 6.56426C1.93477 5.57403 2.10021 5.03656 2.23925 4.67855C2.42338 4.20456 2.64377 3.86605 2.99934 3.51058C3.35481 3.15511 3.69332 2.93503 4.16731 2.75059C4.52532 2.61094 5.06299 2.4459 6.05323 2.4004C6.99014 2.35805 7.35323 2.34535 9.24605 2.34322V2.34576ZM15.5786 4.0321C14.9057 4.0321 14.3598 4.5775 14.3598 5.25045C14.3598 5.9233 14.9057 6.4692 15.5786 6.4692C16.2514 6.4692 16.7973 5.9233 16.7973 5.25045C16.7973 4.5776 16.2514 4.0317 15.5786 4.0317V4.0321ZM10.1572 5.45611C7.27685 5.45611 4.94152 7.79144 4.94152 10.6719C4.94152 13.5523 7.27685 15.8865 10.1572 15.8865C13.0376 15.8865 15.3721 13.5523 15.3721 10.6719C15.3721 7.79154 13.0374 5.45611 10.157 5.45611H10.1572ZM10.1572 7.28637C12.0268 7.28637 13.5426 8.80199 13.5426 10.6719C13.5426 12.5415 12.0268 14.0573 10.1572 14.0573C8.2874 14.0573 6.77178 12.5415 6.77178 10.6719C6.77178 8.80199 8.2874 7.28637 10.1572 7.28637Z" fill="white"/>
</svg>
