<svg width="20" height="16" viewBox="0 0 20 16" fill="none" xmlns="http://www.w3.org/2000/svg">
<path d="M0.00285711 3.07357C0.039112 2.24621 0.393309 1.46476 0.991606 0.892148C1.5899 0.319534 2.38613 -5.78121e-05 3.21429 7.84415e-09H16.7857C17.6139 -5.78121e-05 18.4101 0.319534 19.0084 0.892148C19.6067 1.46476 19.9609 2.24621 19.9971 3.07357L18.9429 3.65929L10 8.47429L1.05714 3.65929L0.00285711 3.07357ZM0 4.70571V12.5C0 13.3525 0.338647 14.17 0.941442 14.7728C1.54424 15.3756 2.3618 15.7143 3.21429 15.7143H16.7857C17.6382 15.7143 18.4558 15.3756 19.0586 14.7728C19.6614 14.17 20 13.3525 20 12.5V4.70571L19.6243 4.915L10.3386 9.915C10.2345 9.97102 10.1182 10.0003 10 10.0003C9.88182 10.0003 9.76549 9.97102 9.66143 9.915L0.367143 4.91L0 4.70571Z" fill="#F2F4F3" fill-opacity="0.8"/>
</svg>
